<svg xmlns="http://www.w3.org/2000/svg" xmlns:xlink="http://www.w3.org/1999/xlink" width="500" zoomAndPan="magnify" viewBox="0 0 375 374.999991" height="500" preserveAspectRatio="xMidYMid meet" version="1.0"><defs><clipPath id="39481d90ce"><path d="M 4 49 L 366 49 L 366 343.515625 L 4 343.515625 Z M 4 49 " clip-rule="nonzero"/></clipPath></defs><g clip-path="url(#39481d90ce)"><path fill="#ff914d" d="M 345.25 216.832031 L 292.386719 163.941406 L 313.246094 143.070312 L 328.402344 143.070312 C 332.957031 147.34375 352.570312 167.28125 351.90625 192.960938 C 351.695312 201.066406 349.464844 209.035156 345.25 216.832031 Z M 332.894531 233.554688 L 279.648438 180.285156 L 245.617188 180.285156 L 224.25 201.660156 L 149.960938 201.660156 L 111.421875 163.105469 L 146.691406 163.105469 C 147.339844 167.183594 150.84375 170.3125 155.101562 170.3125 C 159.824219 170.3125 163.648438 166.484375 163.648438 161.765625 C 163.648438 157.042969 159.824219 153.214844 155.101562 153.214844 C 150.84375 153.214844 147.339844 156.339844 146.691406 160.421875 L 69.199219 160.421875 L 103.714844 125.890625 L 167.28125 125.890625 L 206.660156 165.285156 L 289.9375 165.285156 L 343.875 219.25 C 340.988281 224.089844 337.324219 228.863281 332.894531 233.554688 Z M 317.964844 246.898438 L 316.605469 247.949219 L 315.878906 249.492188 C 315.761719 249.730469 304.164062 273.835938 280.515625 283.300781 L 274.03125 285.894531 L 287.265625 319.6875 C 289.210938 324.65625 285.65625 327.410156 284.523438 328.136719 C 282.175781 329.636719 278.609375 330.144531 275.664062 327.066406 C 272.878906 324.160156 270.625 321.683594 268.957031 319.699219 C 243.25 289.097656 209.800781 280.621094 182.921875 273.8125 C 158.5625 267.640625 139.320312 262.769531 131.289062 245.117188 L 129.367188 240.890625 L 124.726562 241 C 124.269531 241.011719 79.070312 241.863281 50.167969 227.503906 C 39.347656 222.128906 30.878906 213.558594 25.425781 203.191406 L 70.957031 203.191406 L 94.898438 227.140625 L 184.640625 227.140625 L 202.046875 244.558594 L 188.175781 258.4375 L 182.617188 258.4375 C 181.96875 254.359375 178.464844 251.226562 174.207031 251.226562 C 169.484375 251.226562 165.660156 255.054688 165.660156 259.777344 C 165.660156 264.5 169.484375 268.328125 174.207031 268.328125 C 178.464844 268.328125 181.96875 265.199219 182.617188 261.121094 L 189.285156 261.121094 L 204.5 245.898438 L 224.25 245.898438 L 249.566406 271.222656 L 268.675781 271.222656 C 269.320312 275.300781 272.824219 278.429688 277.085938 278.429688 C 281.804688 278.429688 285.632812 274.601562 285.632812 269.878906 C 285.632812 265.160156 281.804688 261.328125 277.085938 261.328125 C 272.824219 261.328125 269.324219 264.457031 268.675781 268.539062 L 250.671875 268.539062 L 225.363281 243.21875 L 204.5 243.21875 L 185.753906 224.460938 L 129.855469 224.460938 L 149.960938 204.34375 L 224.25 204.34375 L 244.863281 224.960938 L 268.675781 224.960938 C 269.324219 229.042969 272.824219 232.171875 277.085938 232.171875 C 281.804688 232.171875 285.632812 228.34375 285.632812 223.621094 C 285.632812 218.898438 281.804688 215.074219 277.085938 215.074219 C 272.824219 215.074219 269.324219 218.199219 268.675781 222.28125 L 245.972656 222.28125 L 226.699219 203.003906 L 246.726562 182.96875 L 278.542969 182.96875 L 331.03125 235.484375 C 327.195312 239.34375 322.839844 243.148438 317.964844 246.898438 Z M 19.371094 163.714844 C 19.402344 163.507812 19.449219 163.308594 19.484375 163.105469 L 107.632812 163.105469 L 147.511719 203.003906 L 126.0625 224.460938 L 96.007812 224.460938 L 72.066406 200.507812 L 24.109375 200.507812 C 19.027344 189.523438 17.199219 176.757812 19.371094 163.714844 Z M 84.019531 108.261719 L 87.167969 107.835938 L 88.941406 105.210938 C 90.546875 102.832031 125.214844 52.746094 180.847656 66.386719 L 144.496094 102.753906 L 123.046875 102.753906 L 102.605469 123.207031 L 102.210938 123.601562 L 65.40625 160.421875 L 20.011719 160.421875 C 26.1875 132.152344 49.855469 112.753906 84.019531 108.261719 Z M 203.261719 74.964844 L 205.8125 74.285156 C 206.390625 74.136719 263.929688 59.253906 298.742188 84.074219 C 303.339844 87.355469 307.335938 91.238281 310.753906 95.671875 L 283.230469 123.207031 L 243.941406 123.207031 C 243.296875 119.125 239.789062 116 235.53125 116 C 230.8125 116 226.984375 119.828125 226.984375 124.550781 C 226.984375 129.269531 230.8125 133.097656 235.53125 133.097656 C 239.789062 133.097656 243.296875 129.96875 243.941406 125.890625 L 284.34375 125.890625 L 312.355469 97.863281 C 319.589844 108.226562 323.84375 121.425781 325.007812 137.371094 L 325.222656 140.304688 L 325.324219 140.390625 L 312.136719 140.390625 L 289.9375 162.601562 L 207.769531 162.601562 L 169.734375 124.550781 L 197.042969 97.222656 L 251.25 97.222656 C 251.894531 101.304688 255.398438 104.429688 259.660156 104.429688 C 264.378906 104.429688 268.203125 100.605469 268.203125 95.882812 C 268.203125 91.160156 264.378906 87.335938 259.660156 87.335938 C 255.398438 87.335938 251.894531 90.460938 251.25 94.542969 L 195.9375 94.542969 L 167.28125 123.207031 L 106.394531 123.207031 L 124.15625 105.4375 L 145.605469 105.4375 L 183.847656 67.175781 C 189.339844 68.730469 195.019531 70.890625 200.894531 73.792969 Z M 338.804688 133.539062 C 336.230469 106.363281 325.507812 85.875 306.910156 72.613281 C 270.882812 46.925781 217.289062 57.179688 204.792969 60.050781 C 164.855469 41.328125 132.46875 52.160156 112.183594 64.722656 C 94.804688 75.484375 83.441406 89.089844 79.160156 94.742188 C 31.871094 102.140625 10.085938 133.808594 5.488281 161.402344 C 0.00390625 194.339844 15.445312 225.96875 43.90625 240.109375 C 70.628906 253.386719 107.820312 254.957031 120.597656 255.085938 C 132.269531 275.503906 155.238281 281.324219 179.46875 287.460938 C 205.6875 294.101562 235.398438 301.628906 258.183594 328.753906 C 260.050781 330.972656 262.511719 333.679688 265.503906 336.804688 C 269.699219 341.191406 275.101562 343.449219 280.613281 343.449219 C 284.515625 343.449219 288.476562 342.3125 292.101562 339.996094 C 300.820312 334.425781 304.140625 324.199219 300.367188 314.554688 L 292.101562 293.449219 C 313.332031 282.378906 324.78125 262.84375 327.8125 257.070312 C 352.542969 237.695312 365.382812 216.257812 365.976562 193.328125 C 366.757812 163.085938 345.824219 140.304688 338.804688 133.539062 " fill-opacity="1" fill-rule="nonzero"/></g></svg>